<!DOCTYPE svg PUBLIC "-//W3C//DTD SVG 20010904//EN" "http://www.w3.org/TR/2001/REC-SVG-20010904/DTD/svg10.dtd">
<svg version="1.0" xmlns="http://www.w3.org/2000/svg" width="712px" height="755px" viewBox="0 0 7120 7550" preserveAspectRatio="xMidYMid meet">
<g id="layer101" fill="#56bbe7" stroke="none">
 <path d="M3380 7280 c0 -148 -2 -270 -5 -270 -3 0 -115 110 -249 245 -133 135 -246 245 -251 245 -16 0 -225 -215 -225 -232 0 -9 164 -181 365 -381 l365 -365 0 -271 0 -271 -37 32 c-20 18 -50 48 -67 67 -17 19 -80 82 -139 140 -60 58 -123 121 -140 140 -18 19 -81 83 -142 142 -60 60 -113 112 -118 116 -121 126 -172 173 -188 173 -23 0 -229 -200 -229 -222 0 -8 238 -253 530 -544 l530 -529 -1 -540 c0 -297 -3 -533 -6 -525 -6 13 -14 25 -39 53 -6 7 -15 24 -19 37 -4 14 -10 27 -14 30 -3 3 -19 32 -36 65 -16 33 -32 62 -35 65 -3 3 -16 28 -30 55 -14 28 -27 52 -30 55 -3 3 -16 26 -30 53 -13 26 -28 47 -31 47 -4 0 -10 14 -14 30 -4 17 -10 30 -14 30 -3 0 -12 12 -18 28 -13 29 -34 64 -44 72 -4 3 -10 16 -14 29 -4 13 -22 50 -41 82 -19 31 -34 62 -34 68 0 6 -4 11 -9 11 -5 0 -12 11 -15 25 -4 14 -11 25 -16 25 -6 0 -10 7 -10 15 0 8 -9 15 -19 15 -21 0 -76 -27 -99 -47 -7 -7 -20 -13 -28 -13 -8 0 -14 -4 -14 -9 0 -5 -12 -12 -27 -16 -14 -3 -38 -15 -51 -26 -14 -10 -31 -19 -40 -19 -11 0 -13 -9 -9 -41 3 -23 10 -45 15 -48 5 -3 13 -17 17 -31 4 -14 10 -27 14 -30 10 -8 31 -43 44 -72 6 -16 14 -28 18 -28 4 0 10 -12 14 -27 3 -15 10 -30 13 -33 4 -3 20 -30 36 -60 37 -73 60 -114 66 -120 3 -3 15 -25 28 -50 31 -60 56 -104 62 -110 5 -5 35 -59 69 -125 9 -16 19 -32 22 -35 12 -10 20 -50 11 -50 -6 0 -12 3 -14 8 -3 8 -39 28 -115 67 -29 14 -53 30 -53 34 0 5 -13 12 -30 16 -16 4 -30 10 -30 15 0 5 -10 12 -22 16 -12 3 -28 13 -36 20 -7 8 -20 14 -28 14 -8 0 -14 5 -14 10 0 6 -6 10 -14 10 -8 0 -21 6 -28 13 -7 7 -24 18 -38 25 -14 7 -47 26 -75 42 -27 17 -66 38 -85 48 -19 9 -41 23 -48 30 -7 6 -20 12 -28 12 -8 0 -14 4 -14 9 0 5 -13 12 -29 16 -16 3 -32 13 -35 21 -3 8 -12 14 -20 14 -8 0 -16 3 -18 8 -2 4 -21 17 -43 28 -33 18 -42 29 -50 65 -5 24 -13 49 -16 54 -4 6 -10 31 -13 57 -4 26 -11 50 -15 53 -5 2 -11 27 -15 54 -4 28 -10 53 -15 55 -5 3 -11 28 -15 55 -4 28 -10 53 -15 55 -5 3 -11 28 -15 55 -4 28 -10 53 -15 55 -5 3 -12 31 -16 61 -3 30 -10 55 -14 55 -5 0 -11 23 -15 50 -4 28 -10 50 -15 50 -5 0 -11 27 -15 59 -4 33 -10 61 -14 63 -4 2 -15 39 -25 83 -38 165 -42 184 -50 191 -3 4 -10 29 -13 56 -4 26 -10 48 -14 48 -4 0 -10 23 -14 51 -4 28 -11 58 -16 67 -5 10 -11 30 -15 45 -6 32 -30 45 -54 30 -9 -6 -40 -14 -69 -18 -29 -4 -54 -11 -57 -16 -3 -4 -28 -11 -55 -15 -28 -4 -50 -10 -50 -15 0 -5 -11 -9 -25 -9 -20 0 -25 -5 -25 -24 0 -14 4 -27 9 -31 6 -3 13 -27 17 -53 3 -26 10 -51 14 -57 5 -5 11 -31 15 -58 4 -26 11 -50 16 -52 4 -3 11 -27 15 -53 3 -26 10 -51 14 -57 5 -5 11 -31 15 -58 4 -26 11 -50 16 -52 4 -3 11 -27 15 -53 3 -26 10 -51 14 -57 5 -5 11 -32 15 -60 4 -27 11 -52 15 -55 7 -5 25 -79 51 -207 6 -29 14 -53 19 -53 4 0 10 -23 14 -51 4 -28 12 -59 19 -69 17 -29 2 -35 -31 -11 -17 12 -35 21 -41 21 -6 0 -11 4 -11 8 0 4 -12 13 -27 20 -16 6 -41 20 -58 31 -16 11 -52 32 -80 46 -81 42 -110 60 -113 68 -2 4 -9 7 -16 7 -7 0 -23 9 -36 20 -13 11 -29 20 -37 20 -7 0 -13 11 -13 24 0 14 -4 27 -9 30 -4 3 -11 28 -15 55 -4 28 -10 53 -15 55 -5 3 -12 27 -16 53 -4 27 -10 53 -15 58 -4 6 -11 31 -14 57 -4 26 -11 50 -16 53 -5 3 -12 30 -15 60 -4 30 -11 55 -15 55 -4 0 -11 24 -14 52 -4 29 -11 55 -15 58 -4 3 -15 39 -24 80 -8 41 -23 102 -32 135 -9 33 -22 83 -28 110 -17 72 -29 89 -53 77 -10 -5 -73 -22 -139 -37 -66 -15 -128 -29 -138 -32 -16 -4 -18 -11 -12 -51 4 -26 11 -51 15 -57 4 -5 11 -31 15 -58 4 -26 11 -50 15 -52 5 -3 12 -30 15 -60 4 -30 11 -55 15 -55 5 0 11 -22 15 -50 4 -27 11 -52 15 -55 5 -3 12 -30 15 -60 4 -30 11 -55 15 -55 4 0 11 -21 15 -47 3 -27 9 -58 12 -71 l5 -22 -33 17 c-18 10 -38 23 -44 28 -6 6 -29 19 -51 30 -21 11 -45 26 -52 33 -7 6 -20 12 -28 12 -8 0 -14 4 -14 9 0 5 -13 12 -29 16 -16 3 -32 12 -34 20 -3 7 -19 16 -36 20 -17 4 -31 10 -31 14 0 3 -21 18 -47 31 -27 14 -50 28 -51 33 -9 18 -43 5 -55 -20 -6 -16 -14 -30 -18 -33 -8 -6 -35 -57 -50 -92 -6 -16 -15 -28 -19 -28 -4 0 -11 -12 -14 -26 -4 -15 -14 -33 -21 -41 -8 -8 -15 -21 -15 -29 0 -13 70 -64 88 -64 5 0 19 -9 32 -20 13 -11 29 -20 37 -20 7 0 13 -4 13 -9 0 -5 11 -12 25 -15 14 -4 25 -10 25 -15 0 -5 14 -12 30 -16 17 -4 30 -10 30 -14 0 -3 21 -18 47 -31 26 -14 53 -29 59 -35 6 -5 27 -19 47 -30 20 -11 37 -23 37 -26 0 -4 -22 -10 -50 -14 -27 -4 -50 -11 -50 -15 0 -5 -26 -12 -57 -15 -32 -4 -72 -13 -89 -20 -17 -7 -51 -16 -75 -20 -24 -4 -48 -11 -54 -15 -5 -4 -31 -11 -57 -14 -26 -4 -50 -11 -53 -15 -2 -5 -27 -11 -55 -15 -27 -4 -50 -11 -50 -16 0 -6 -15 -10 -34 -10 -25 0 -36 -5 -41 -19 -6 -18 18 -135 35 -176 5 -11 12 -36 15 -55 13 -74 41 -112 59 -81 3 4 28 11 56 15 27 4 50 11 50 15 0 5 25 12 55 16 30 3 57 10 60 14 2 5 27 11 54 15 28 4 53 11 56 15 3 5 28 12 55 16 28 4 50 10 50 15 0 4 23 10 51 13 28 4 56 10 63 15 6 5 31 12 55 16 24 4 49 10 55 14 6 4 45 14 86 24 161 36 189 44 196 51 15 14 44 6 101 -28 32 -19 64 -35 71 -35 6 0 12 -4 12 -10 0 -5 11 -12 25 -16 14 -3 25 -10 25 -14 0 -5 13 -11 29 -15 16 -3 32 -13 35 -21 3 -8 12 -14 21 -14 8 0 15 -4 15 -9 0 -5 14 -12 30 -16 17 -4 30 -11 30 -16 0 -5 22 -19 50 -31 52 -24 59 -41 19 -46 -13 -2 -28 -7 -34 -12 -5 -4 -31 -11 -57 -14 -27 -4 -48 -11 -48 -15 0 -5 -24 -12 -52 -15 -29 -4 -57 -11 -63 -15 -5 -4 -41 -13 -80 -21 -38 -7 -74 -16 -80 -20 -5 -5 -31 -11 -58 -15 -26 -4 -50 -11 -52 -15 -3 -5 -30 -12 -60 -15 -31 -4 -58 -11 -61 -16 -2 -5 -27 -11 -54 -15 -28 -4 -50 -10 -50 -15 0 -4 -25 -11 -55 -14 -30 -4 -58 -11 -61 -16 -2 -5 -27 -11 -54 -15 -28 -4 -50 -10 -50 -15 0 -4 -25 -11 -56 -15 -56 -7 -76 -23 -56 -47 5 -6 13 -36 17 -64 4 -29 10 -53 15 -53 4 0 10 -22 14 -50 4 -27 11 -52 16 -55 6 -3 10 -17 10 -31 0 -14 6 -27 14 -30 15 -6 149 21 177 36 9 5 37 11 63 15 25 4 49 11 51 15 3 5 30 12 60 15 30 4 55 11 55 15 0 5 22 11 50 15 27 4 52 11 55 15 3 5 30 12 60 15 30 4 55 11 55 15 0 5 22 11 50 15 27 4 52 11 55 15 3 5 30 12 60 15 30 4 55 11 55 15 0 5 25 12 55 15 30 4 55 11 55 15 0 5 24 11 53 15 28 4 66 13 82 20 17 6 52 15 77 19 26 4 50 11 53 15 2 5 30 12 60 16 30 3 55 10 55 14 0 5 22 11 49 15 27 4 52 12 54 19 4 8 8 9 14 2 4 -6 19 -16 33 -23 14 -7 41 -22 60 -33 53 -33 132 -77 160 -91 14 -7 27 -15 30 -18 10 -10 45 -31 73 -43 15 -6 27 -14 27 -18 0 -4 11 -10 25 -13 14 -4 25 -10 25 -15 0 -5 14 -12 30 -16 17 -4 30 -10 30 -14 0 -3 21 -18 48 -31 26 -14 49 -27 52 -30 5 -5 28 -18 68 -39 9 -5 56 -32 103 -60 48 -28 90 -51 93 -51 4 0 12 -5 19 -10 7 -6 21 -17 32 -26 18 -13 -1 -14 -190 -9 -632 16 -805 17 -820 5 -12 -10 -15 -42 -15 -170 l0 -157 368 -8 c363 -7 742 -19 711 -23 -9 -1 -19 -9 -23 -17 -3 -8 -12 -15 -21 -15 -8 0 -15 -4 -15 -10 0 -5 -4 -10 -9 -10 -14 0 -52 -18 -86 -40 -16 -11 -41 -25 -55 -30 -13 -6 -27 -14 -30 -18 -3 -4 -23 -16 -44 -27 -22 -11 -45 -24 -51 -30 -10 -9 -60 -38 -130 -74 -16 -9 -32 -19 -35 -22 -3 -3 -18 -12 -35 -20 -37 -19 -78 -42 -85 -49 -5 -5 -47 -28 -125 -69 -16 -9 -35 -22 -43 -28 -7 -7 -20 -13 -28 -13 -8 0 -14 -4 -14 -8 0 -4 -12 -13 -27 -19 -27 -12 -63 -33 -73 -43 -16 -16 -74 -39 -79 -32 -3 5 -27 12 -53 16 -27 4 -48 11 -48 16 0 4 -27 11 -60 15 -33 4 -60 10 -60 15 0 4 -22 10 -50 14 -27 4 -52 10 -54 15 -3 5 -27 12 -53 16 -27 4 -52 10 -58 15 -5 4 -31 11 -57 14 -26 4 -50 11 -53 15 -2 5 -26 12 -52 16 -27 4 -52 10 -58 13 -5 4 -32 12 -60 18 -27 7 -103 26 -169 43 -65 17 -127 31 -137 31 -10 0 -19 4 -19 10 0 5 -27 12 -60 16 -33 4 -60 10 -60 15 0 4 -21 11 -47 15 -27 3 -53 11 -59 16 -7 5 -35 11 -63 15 -28 3 -51 10 -51 14 0 5 -13 9 -29 9 -30 0 -41 -14 -41 -55 0 -13 -4 -26 -9 -29 -5 -3 -12 -27 -16 -53 -4 -27 -11 -53 -17 -60 -5 -7 -12 -39 -15 -71 -5 -56 -4 -59 18 -65 13 -4 34 -7 47 -7 12 0 30 -4 40 -10 22 -12 120 -38 197 -52 33 -6 62 -14 65 -18 3 -4 26 -10 53 -14 26 -4 47 -11 47 -16 0 -4 27 -11 60 -15 33 -4 60 -10 60 -15 0 -4 22 -10 50 -14 28 -4 50 -11 50 -15 0 -5 27 -12 60 -16 33 -4 60 -11 60 -15 0 -4 22 -11 50 -15 27 -4 52 -11 55 -15 3 -5 30 -12 60 -15 30 -4 55 -11 55 -16 0 -5 10 -9 23 -9 29 0 57 -19 39 -27 -7 -2 -18 -11 -25 -18 -7 -7 -24 -16 -37 -20 -14 -4 -36 -16 -49 -26 -13 -11 -30 -19 -37 -19 -8 0 -14 -4 -14 -10 0 -5 -6 -10 -14 -10 -8 0 -21 -6 -28 -12 -7 -7 -34 -23 -60 -36 -27 -13 -48 -27 -48 -32 0 -5 -13 -11 -30 -15 -16 -4 -30 -11 -30 -16 0 -5 -7 -9 -15 -9 -9 0 -18 -7 -21 -15 -7 -17 -94 -22 -94 -6 0 5 -25 13 -55 16 -30 4 -55 11 -55 16 0 4 -21 11 -47 14 -27 3 -56 10 -66 16 -9 5 -38 12 -62 16 -25 3 -45 9 -45 14 0 4 -25 11 -55 14 -30 4 -58 11 -61 16 -2 5 -27 11 -55 15 -27 4 -52 10 -54 15 -3 4 -27 11 -53 15 -26 3 -51 10 -57 14 -5 5 -39 14 -75 20 -36 6 -70 16 -76 21 -7 5 -40 12 -75 15 -63 6 -64 6 -75 -22 -18 -45 -64 -237 -64 -266 0 -25 4 -27 55 -33 30 -4 55 -11 55 -15 0 -5 25 -12 55 -15 30 -4 55 -10 55 -14 0 -7 60 -27 115 -37 22 -4 42 -10 45 -13 5 -6 54 -19 165 -42 28 -6 54 -15 59 -20 6 -5 20 -9 33 -9 32 0 29 -26 -4 -35 -15 -3 -39 -15 -54 -26 -15 -10 -32 -19 -38 -19 -6 0 -11 -4 -11 -8 0 -4 -12 -13 -27 -19 -16 -7 -50 -25 -78 -42 -27 -17 -61 -36 -75 -43 -14 -7 -27 -15 -30 -18 -3 -3 -15 -11 -27 -17 -57 -32 -68 -39 -80 -50 -15 -13 -18 -53 -4 -53 5 0 12 -11 15 -25 4 -14 10 -25 15 -25 5 0 12 -14 16 -30 4 -17 10 -30 13 -30 4 0 23 -29 41 -65 24 -46 40 -65 54 -65 10 0 56 23 102 50 46 28 88 50 94 50 6 0 11 3 11 8 0 7 22 21 73 44 15 7 27 15 27 19 0 4 11 10 25 13 14 4 25 11 25 16 0 6 5 10 11 10 7 0 34 13 60 30 l49 30 0 -25 c0 -14 -4 -25 -9 -25 -5 0 -12 -25 -16 -55 -3 -30 -10 -57 -15 -60 -4 -3 -11 -28 -15 -55 -4 -27 -11 -52 -15 -55 -4 -3 -11 -28 -15 -55 -4 -27 -11 -52 -15 -55 -4 -3 -11 -28 -15 -55 -4 -27 -11 -52 -15 -55 -4 -3 -11 -28 -15 -55 -4 -27 -11 -52 -16 -56 -5 -3 -9 -25 -9 -49 l0 -44 55 -6 c30 -4 55 -11 55 -16 0 -4 21 -11 48 -14 26 -4 57 -11 69 -17 12 -6 39 -11 60 -12 l38 -1 9 55 c5 30 12 57 15 60 4 3 12 28 18 55 17 75 40 163 57 225 9 30 16 65 16 78 0 12 4 22 9 22 5 0 12 25 16 55 3 30 10 57 15 60 4 3 11 24 15 48 4 23 11 47 15 52 4 6 11 34 15 62 4 29 11 55 15 58 5 3 11 24 15 48 3 23 10 51 15 62 5 11 11 32 14 47 4 16 11 28 17 28 5 0 45 20 87 45 109 64 116 69 122 76 3 4 16 10 30 14 14 4 32 15 40 24 8 9 33 25 54 36 22 11 45 25 52 32 6 7 23 15 38 19 22 5 26 3 26 -14 0 -12 -4 -23 -9 -27 -6 -3 -13 -27 -17 -53 -4 -25 -13 -60 -19 -77 -7 -16 -16 -54 -20 -82 -4 -29 -11 -55 -15 -58 -4 -3 -11 -28 -15 -55 -4 -27 -11 -52 -15 -55 -5 -3 -12 -30 -15 -60 -4 -30 -11 -55 -15 -55 -5 0 -11 -22 -15 -50 -4 -27 -10 -52 -15 -55 -4 -3 -11 -26 -15 -52 -4 -27 -10 -52 -15 -58 -4 -5 -11 -31 -14 -57 -4 -26 -11 -50 -16 -53 -4 -3 -11 -28 -15 -55 -4 -27 -11 -52 -16 -56 -5 -3 -9 -17 -9 -32 -1 -15 -7 -44 -14 -64 -13 -35 -12 -38 10 -53 13 -8 44 -18 69 -22 25 -3 45 -9 45 -13 0 -5 24 -11 53 -15 28 -4 57 -11 62 -15 6 -5 23 -10 40 -12 25 -3 31 2 39 27 6 17 14 32 17 35 3 3 10 28 14 55 4 28 10 55 15 60 4 6 11 31 14 57 4 26 11 50 15 53 5 2 12 26 16 52 4 27 10 53 13 58 7 10 20 61 50 197 10 42 21 80 25 84 4 4 10 29 13 56 4 27 10 51 15 53 4 3 11 27 15 53 3 26 10 52 14 57 5 6 11 31 15 58 4 26 11 50 16 52 4 3 11 27 15 53 3 26 10 52 14 57 5 6 11 33 15 60 4 28 11 52 15 55 4 3 12 28 18 55 41 182 37 174 93 199 19 8 57 29 84 45 28 17 61 36 75 43 14 7 27 15 30 18 10 10 45 31 73 43 15 6 27 14 27 18 0 4 11 10 25 13 14 4 25 10 25 15 0 5 14 12 30 16 17 4 30 11 30 16 0 4 24 20 53 34 76 39 112 59 115 68 2 4 10 7 17 7 8 0 20 6 27 13 7 6 35 23 61 37 26 13 47 28 47 31 0 4 14 10 30 14 17 4 30 11 30 16 0 5 7 9 15 9 9 0 18 6 21 14 3 8 19 18 35 21 16 4 29 10 29 14 0 3 13 12 29 18 26 9 29 9 23 -6 -3 -9 -8 -18 -11 -21 -6 -5 -40 -66 -75 -135 -12 -22 -24 -42 -28 -45 -3 -3 -10 -18 -13 -33 -4 -15 -11 -27 -16 -27 -5 0 -9 -6 -9 -13 0 -8 -9 -24 -20 -37 -11 -13 -20 -29 -20 -37 0 -7 -4 -13 -9 -13 -5 0 -12 -14 -16 -30 -4 -17 -10 -30 -14 -30 -3 0 -18 -21 -31 -47 -14 -27 -27 -50 -30 -53 -5 -5 -20 -33 -84 -155 -22 -44 -44 -82 -48 -85 -3 -3 -10 -18 -13 -33 -4 -15 -10 -27 -14 -27 -3 0 -18 -21 -31 -47 -14 -27 -28 -50 -31 -53 -3 -3 -11 -21 -18 -40 -11 -33 -10 -36 16 -57 15 -12 40 -25 55 -29 16 -3 28 -9 28 -14 0 -5 10 -12 23 -16 12 -4 24 -9 27 -13 3 -3 24 -16 47 -28 48 -26 93 -30 93 -9 0 8 7 16 15 20 8 3 15 12 15 21 0 8 4 15 9 15 5 0 12 14 16 30 4 17 10 30 14 30 4 0 27 39 51 88 24 48 47 89 51 92 4 3 11 18 14 33 4 15 11 27 16 27 5 0 9 6 9 13 0 8 9 24 20 37 11 13 20 29 20 37 0 7 3 13 8 13 4 0 18 25 31 55 14 30 28 55 33 55 4 0 8 5 8 11 0 6 16 37 35 70 19 33 38 71 41 84 3 14 9 25 13 25 3 0 18 21 31 48 14 26 28 49 31 52 3 3 9 12 12 20 3 8 6 -215 6 -497 l1 -512 -530 -530 c-291 -292 -530 -535 -530 -542 0 -14 216 -229 231 -229 6 0 193 182 416 405 223 223 407 405 409 405 2 0 4 -119 4 -265 l0 -265 -365 -366 c-279 -279 -365 -371 -365 -390 0 -13 4 -24 9 -24 6 0 52 -43 103 -95 51 -52 101 -95 111 -95 9 0 127 110 262 246 l245 245 0 -280 0 -281 165 0 165 0 0 281 0 280 251 -250 c138 -138 254 -251 259 -251 5 0 57 47 115 104 75 74 105 111 105 128 0 17 -95 117 -365 387 l-365 365 0 263 c0 145 2 263 4 263 3 0 187 -182 410 -405 223 -223 413 -405 422 -405 22 0 224 204 224 225 0 9 -238 255 -530 547 l-530 530 1 526 c1 290 3 519 6 510 2 -10 8 -18 13 -18 5 0 11 -14 15 -30 4 -17 11 -30 16 -30 5 0 9 -7 9 -15 0 -9 6 -18 14 -21 8 -3 17 -17 21 -32 4 -15 10 -29 13 -32 4 -3 21 -32 37 -65 17 -33 32 -62 35 -65 3 -3 16 -27 30 -55 14 -27 27 -52 30 -55 3 -3 16 -26 30 -52 13 -27 28 -48 31 -48 4 0 10 -14 14 -30 4 -17 11 -30 16 -30 5 0 9 -6 9 -14 0 -7 9 -25 20 -39 11 -14 20 -32 20 -40 0 -9 3 -17 8 -19 4 -1 21 -30 37 -63 17 -33 32 -62 35 -65 3 -3 16 -27 29 -54 23 -48 24 -48 64 -43 22 3 43 10 46 15 3 6 19 14 34 17 15 4 27 11 27 16 0 5 7 9 15 9 9 0 18 6 21 14 3 8 16 17 29 20 38 10 95 47 95 61 0 8 -6 20 -12 27 -7 7 -24 36 -37 63 -14 28 -31 56 -38 63 -7 7 -13 20 -13 28 0 8 -4 14 -9 14 -5 0 -12 12 -16 27 -3 15 -10 30 -13 33 -6 4 -37 60 -81 145 -9 16 -18 32 -21 35 -3 3 -15 25 -28 50 -31 60 -56 104 -62 110 -5 5 -35 59 -69 125 -9 16 -18 32 -21 35 -3 3 -20 34 -37 70 -48 96 -87 165 -95 168 -5 2 -8 9 -8 16 0 8 -9 25 -20 39 l-20 25 30 -11 c16 -6 30 -15 30 -19 0 -4 5 -8 11 -8 6 0 23 -9 38 -19 15 -11 39 -23 54 -26 15 -4 27 -10 27 -14 0 -3 21 -18 47 -31 26 -14 54 -31 61 -37 7 -7 20 -13 28 -13 8 0 14 -4 14 -9 0 -5 13 -12 29 -16 16 -3 32 -13 35 -21 3 -8 12 -14 21 -14 8 0 15 -4 15 -8 0 -4 12 -13 28 -20 15 -6 46 -23 70 -37 23 -14 61 -36 85 -50 23 -14 54 -31 70 -37 15 -7 27 -16 27 -20 0 -4 6 -8 14 -8 8 0 21 -6 28 -14 8 -7 24 -17 36 -20 12 -4 22 -12 22 -17 0 -5 6 -9 14 -9 8 0 21 -6 28 -14 8 -7 25 -17 38 -21 14 -4 27 -10 30 -14 7 -8 39 -28 70 -43 49 -25 56 -40 92 -203 6 -27 14 -52 18 -55 4 -3 10 -25 14 -50 4 -24 11 -49 15 -55 5 -5 11 -32 15 -59 3 -27 10 -54 15 -60 5 -6 12 -31 16 -56 4 -25 11 -49 15 -55 4 -5 11 -31 14 -57 4 -26 11 -50 15 -53 5 -2 11 -27 15 -55 4 -27 11 -50 16 -50 6 0 10 -12 10 -27 1 -16 8 -55 16 -88 9 -33 21 -82 28 -110 6 -27 14 -54 18 -60 3 -5 9 -31 13 -58 4 -26 11 -50 16 -52 4 -3 11 -27 15 -53 3 -26 10 -51 14 -57 4 -5 11 -30 15 -55 4 -25 11 -49 15 -55 4 -5 10 -22 14 -37 6 -28 38 -39 50 -19 4 5 29 12 56 16 27 4 52 10 55 15 3 4 30 11 60 15 30 3 55 11 55 16 0 5 11 9 24 9 24 0 43 25 26 35 -5 3 -12 27 -16 53 -3 26 -10 52 -14 57 -5 6 -11 31 -15 58 -4 26 -11 50 -16 53 -5 2 -11 27 -15 55 -4 27 -10 52 -15 54 -4 3 -11 30 -14 60 -4 30 -11 55 -15 55 -5 0 -11 22 -15 50 -4 27 -11 52 -15 55 -5 3 -12 30 -15 60 -4 30 -11 55 -15 55 -5 0 -11 22 -15 50 -4 27 -11 52 -15 55 -4 3 -11 29 -15 58 -4 28 -12 63 -17 77 -6 14 -17 52 -24 85 -8 33 -17 71 -21 84 -5 21 -3 22 18 16 13 -4 29 -14 37 -21 7 -8 24 -17 38 -20 13 -3 24 -9 24 -13 0 -3 21 -18 47 -31 26 -14 56 -33 67 -42 11 -10 29 -21 40 -24 12 -4 23 -9 26 -13 7 -8 39 -28 70 -43 14 -7 27 -15 30 -18 3 -3 17 -11 33 -19 15 -8 30 -26 33 -40 3 -14 9 -35 14 -46 5 -11 12 -39 15 -62 4 -24 10 -45 15 -48 4 -3 11 -28 15 -55 4 -27 11 -52 15 -55 4 -3 11 -28 15 -55 4 -27 11 -52 15 -55 5 -3 12 -30 15 -60 4 -30 11 -55 16 -55 5 0 9 -10 9 -22 0 -13 7 -48 16 -78 17 -62 40 -150 57 -225 6 -27 14 -52 18 -55 3 -3 10 -27 15 -55 8 -45 12 -50 37 -53 16 -2 34 1 40 6 7 5 36 13 65 17 28 4 52 10 52 15 0 4 25 11 55 15 30 3 55 11 55 16 0 5 7 9 15 9 17 0 22 65 6 74 -5 4 -12 29 -16 56 -4 27 -11 52 -15 55 -4 3 -11 28 -15 55 -4 27 -11 52 -15 55 -4 3 -11 28 -15 55 -4 27 -11 52 -15 55 -4 3 -11 28 -15 55 -4 27 -11 52 -15 55 -5 3 -12 30 -15 60 -4 30 -11 55 -15 55 -4 0 -10 14 -12 30 -3 17 -1 30 4 30 4 0 8 -4 8 -8 0 -4 24 -20 53 -36 81 -43 112 -60 117 -67 3 -4 15 -9 28 -13 12 -4 22 -11 22 -16 0 -4 12 -11 26 -14 15 -4 32 -12 40 -19 32 -28 42 -35 65 -42 13 -4 26 -10 29 -14 7 -9 42 -30 68 -41 20 -8 27 -6 43 12 10 13 18 28 19 34 0 6 6 17 14 23 8 7 17 24 21 39 4 15 10 29 13 32 11 8 31 42 45 73 6 15 15 27 19 27 4 0 8 13 8 29 0 25 -5 31 -30 36 -16 4 -30 10 -30 15 0 5 -10 12 -22 16 -12 3 -28 13 -36 20 -7 8 -20 14 -28 14 -8 0 -14 4 -14 9 0 5 -10 13 -22 17 -13 4 -25 9 -28 13 -6 7 -39 25 -120 67 -30 16 -61 35 -68 41 -7 7 -18 13 -23 13 -6 0 -17 6 -24 14 -12 11 -10 15 8 25 12 6 45 16 72 22 28 6 74 16 103 22 28 6 52 15 52 19 0 4 11 8 25 8 14 0 25 4 25 9 0 5 25 12 55 16 30 3 55 10 55 15 0 4 25 11 55 15 30 3 55 10 55 14 0 4 30 12 66 18 36 6 68 14 71 17 7 7 -10 99 -37 201 -12 44 -24 90 -27 103 -4 16 -13 22 -34 22 -16 0 -29 -4 -29 -9 0 -5 -25 -13 -55 -16 -30 -4 -57 -11 -60 -15 -3 -5 -28 -11 -55 -15 -28 -4 -50 -10 -50 -14 0 -4 -33 -13 -74 -19 -40 -7 -77 -16 -80 -20 -7 -6 -54 -18 -171 -43 -27 -6 -52 -14 -55 -18 -5 -7 -61 -21 -167 -42 -29 -6 -53 -14 -53 -19 0 -4 -23 -10 -51 -14 -28 -4 -59 -12 -69 -18 -14 -9 -21 -8 -35 5 -9 9 -23 17 -31 17 -8 0 -14 4 -14 9 0 5 -10 13 -22 17 -12 3 -28 13 -36 20 -7 8 -20 14 -28 14 -8 0 -14 4 -14 9 0 5 -13 12 -30 16 -16 4 -30 10 -30 15 0 5 -26 21 -57 35 -31 15 -63 34 -71 41 -7 8 -20 14 -28 14 -8 0 -14 5 -14 10 0 6 -6 10 -14 10 -8 0 -21 6 -28 13 -7 8 -20 16 -28 20 -8 3 0 6 18 6 17 1 32 5 32 10 0 5 25 12 55 16 30 3 57 10 60 15 3 5 28 12 55 16 28 4 50 10 50 14 0 5 27 11 60 15 33 4 60 11 60 16 0 4 23 11 50 15 28 4 50 10 50 15 0 4 27 11 60 15 33 4 60 10 60 14 0 4 19 10 43 14 23 4 62 13 87 20 53 17 116 33 185 48 28 6 52 14 55 18 3 4 27 10 54 13 69 10 80 21 72 81 -3 27 -9 52 -14 55 -5 3 -12 28 -16 55 -4 27 -12 56 -16 65 -5 9 -12 33 -15 54 l-6 39 -42 -7 c-23 -4 -44 -11 -47 -15 -3 -4 -27 -10 -54 -13 -27 -4 -54 -11 -60 -16 -6 -5 -31 -12 -56 -16 -25 -4 -49 -11 -55 -15 -5 -4 -34 -11 -62 -15 -29 -4 -53 -10 -53 -15 0 -4 -22 -10 -50 -14 -27 -4 -50 -10 -50 -14 0 -4 -28 -13 -62 -19 -35 -6 -99 -21 -143 -33 -44 -12 -100 -26 -125 -31 -25 -5 -53 -14 -62 -19 -9 -5 -36 -13 -60 -16 -24 -4 -47 -10 -53 -14 -5 -5 -31 -11 -58 -15 -26 -4 -50 -11 -52 -16 -3 -4 -27 -11 -53 -15 -26 -3 -51 -10 -57 -14 -5 -5 -32 -11 -60 -15 -27 -4 -52 -12 -56 -16 -3 -5 -26 -12 -51 -15 -41 -6 -53 -3 -106 30 -33 20 -65 36 -71 36 -6 0 -11 4 -11 8 0 4 -12 13 -27 19 -27 12 -63 33 -73 43 -6 6 -47 29 -120 66 -30 16 -57 32 -60 36 -3 3 -17 9 -32 13 -15 4 -29 13 -32 21 -3 8 -12 14 -21 14 -8 0 -15 4 -15 9 0 5 -13 12 -29 16 -16 3 -32 13 -35 21 -3 8 -12 14 -20 14 -8 0 -16 3 -18 8 -1 4 -25 18 -53 32 -27 14 -52 27 -55 30 -10 10 -66 41 -92 51 -16 6 -28 15 -28 19 0 4 -11 11 -25 14 -14 4 -25 11 -25 18 0 11 237 8 657 -8 124 -5 166 -4 178 6 12 10 15 41 15 170 l0 157 -252 8 c-139 4 -332 10 -428 14 l-175 6 38 18 c20 10 37 22 37 27 0 4 14 11 30 15 17 4 30 11 30 16 0 5 7 9 15 9 9 0 18 6 21 14 3 8 17 17 32 21 15 4 29 10 32 13 4 6 60 37 145 81 16 9 32 18 35 21 10 10 65 41 83 47 9 3 17 9 17 14 0 5 6 9 14 9 8 0 21 6 28 13 7 6 35 23 61 37 26 13 47 28 47 31 0 4 14 10 30 14 17 4 30 10 30 15 0 5 24 20 53 35 28 14 63 33 77 41 25 14 104 10 125 -6 6 -5 28 -11 50 -15 22 -4 56 -12 75 -20 19 -7 59 -16 88 -20 28 -4 52 -10 52 -15 0 -4 25 -11 55 -15 30 -3 57 -10 60 -15 3 -4 28 -11 55 -15 28 -4 50 -10 50 -15 0 -4 22 -10 50 -14 27 -4 52 -10 54 -15 3 -5 31 -12 61 -16 30 -3 55 -10 55 -14 0 -3 24 -12 53 -18 102 -22 152 -34 172 -43 22 -9 87 -27 153 -41 24 -5 73 -18 109 -29 36 -11 80 -20 99 -20 19 0 34 -4 34 -10 0 -5 11 -10 25 -10 22 0 25 4 25 34 0 19 4 38 10 41 5 3 12 28 16 55 4 28 10 50 14 50 5 0 12 24 18 53 5 28 12 59 16 67 8 18 -29 36 -96 45 -27 4 -48 11 -48 15 0 4 -20 10 -45 13 -24 4 -53 11 -62 16 -10 6 -39 13 -65 16 -27 3 -48 10 -48 14 0 5 -22 11 -50 15 -27 4 -52 10 -54 15 -3 5 -31 12 -61 16 -30 3 -55 10 -55 15 0 4 -25 11 -55 15 -30 3 -57 10 -60 15 -2 4 -26 11 -52 15 -27 4 -52 10 -58 15 -5 4 -41 13 -80 20 -38 7 -74 16 -80 20 -5 5 -31 11 -58 15 -26 4 -50 11 -53 16 -3 5 -14 9 -25 9 -17 0 -18 2 -7 14 8 7 25 17 38 21 14 4 27 10 30 14 7 9 42 30 68 41 13 6 30 17 38 25 9 8 22 15 30 15 8 0 14 4 14 8 0 4 12 13 28 20 50 23 72 37 72 44 0 5 5 8 11 8 6 0 37 15 68 34 35 20 63 31 71 26 7 -4 46 -14 86 -21 41 -7 74 -16 74 -20 0 -4 25 -11 55 -14 30 -4 58 -11 61 -16 2 -5 27 -11 55 -15 27 -4 52 -10 54 -15 3 -4 27 -11 53 -15 26 -3 52 -10 57 -14 6 -5 31 -11 58 -15 26 -4 50 -11 52 -16 3 -4 27 -11 53 -15 26 -3 52 -10 57 -14 6 -5 31 -11 58 -15 26 -4 50 -11 53 -16 2 -5 27 -11 55 -15 27 -4 52 -11 55 -15 3 -5 18 -9 33 -9 31 0 44 21 56 90 3 19 10 44 15 55 16 38 40 154 34 168 -6 17 -35 27 -76 27 -16 0 -28 4 -28 9 0 6 -21 13 -47 17 -27 3 -53 11 -59 16 -7 5 -35 11 -63 15 -28 3 -51 9 -51 14 0 4 -21 11 -47 15 -27 3 -53 10 -59 15 -6 5 -33 12 -60 15 -27 4 -53 10 -59 14 -5 4 -36 13 -68 20 -31 6 -55 16 -52 21 4 5 10 9 15 9 5 0 47 23 94 50 47 28 89 50 95 50 6 0 11 5 11 10 0 6 7 10 15 10 9 0 18 6 21 14 3 8 19 18 35 21 16 4 29 11 29 16 0 5 6 9 13 9 8 0 24 9 37 20 13 11 29 20 37 20 7 0 13 4 13 9 0 5 14 12 30 16 17 4 30 13 30 21 0 14 -39 94 -51 104 -6 6 -66 112 -83 148 -9 20 -16 23 -50 19 -21 -3 -42 -9 -45 -14 -3 -4 -24 -17 -46 -29 -84 -43 -130 -69 -133 -76 -2 -5 -10 -8 -18 -8 -8 0 -17 -6 -20 -14 -3 -8 -19 -18 -35 -21 -16 -4 -29 -11 -29 -16 0 -5 -6 -9 -14 -9 -8 0 -21 -6 -28 -14 -8 -7 -24 -17 -36 -20 -12 -4 -22 -12 -22 -17 0 -5 -7 -9 -16 -9 -12 0 -15 6 -10 25 4 14 9 45 13 70 3 25 9 45 13 45 4 0 11 25 15 55 3 30 10 57 15 60 4 2 11 26 15 52 4 27 10 50 14 53 6 5 11 23 41 155 6 28 15 57 19 65 5 9 12 35 16 58 6 37 5 42 -12 42 -11 0 -23 3 -27 7 -4 4 -31 13 -59 19 -29 6 -86 21 -127 32 -43 11 -81 17 -90 12 -7 -4 -20 -32 -26 -62 -7 -29 -19 -80 -28 -113 -8 -33 -23 -94 -33 -135 -10 -41 -21 -79 -25 -85 -3 -5 -9 -31 -13 -58 -4 -26 -11 -49 -15 -52 -5 -3 -11 -28 -15 -55 -4 -27 -11 -52 -15 -55 -5 -3 -12 -27 -16 -53 -3 -26 -10 -51 -14 -57 -5 -5 -11 -31 -15 -58 -4 -26 -11 -49 -15 -52 -5 -3 -11 -28 -15 -55 -4 -27 -11 -52 -16 -56 -5 -3 -9 -16 -9 -30 0 -14 -7 -27 -17 -31 -10 -4 -20 -10 -23 -14 -5 -7 -76 -48 -167 -95 -29 -15 -53 -31 -53 -35 0 -4 -13 -10 -30 -14 -16 -4 -30 -11 -30 -16 0 -5 -7 -9 -15 -9 -9 0 -18 -6 -21 -14 -3 -8 -17 -17 -32 -21 -15 -4 -29 -10 -32 -14 -3 -5 -15 -11 -27 -15 -17 -5 -23 -3 -23 8 0 8 4 18 10 21 5 3 12 28 16 56 4 27 10 52 15 54 4 3 11 27 15 53 4 25 13 60 19 77 7 16 16 54 20 83 4 28 10 52 15 52 4 0 11 25 15 55 3 30 10 55 15 55 4 0 11 25 15 55 3 30 10 57 15 60 4 3 11 28 15 55 4 28 10 50 15 50 4 0 11 25 15 55 3 30 10 57 15 60 4 3 11 28 15 55 4 27 10 52 15 55 4 3 11 26 15 51 4 26 12 56 18 66 10 16 9 22 -7 34 -11 8 -30 14 -43 14 -13 0 -23 4 -23 9 0 5 -22 11 -48 15 -27 3 -52 10 -56 14 -4 4 -35 12 -69 18 -69 13 -87 6 -87 -32 0 -12 -4 -25 -9 -28 -5 -3 -12 -31 -16 -61 -3 -30 -10 -55 -14 -55 -5 0 -11 -22 -15 -48 -3 -27 -10 -52 -13 -56 -8 -7 -13 -30 -50 -191 -9 -44 -21 -82 -24 -85 -4 -3 -10 -31 -14 -62 -4 -32 -11 -58 -16 -58 -4 0 -11 -21 -15 -47 -3 -27 -11 -53 -16 -59 -5 -7 -11 -35 -15 -63 -3 -28 -10 -51 -14 -51 -5 0 -11 -23 -15 -50 -4 -28 -10 -53 -15 -56 -5 -2 -11 -27 -15 -55 -4 -27 -10 -52 -15 -54 -4 -3 -11 -27 -15 -53 -3 -26 -10 -51 -14 -57 -4 -5 -11 -30 -15 -55 -4 -25 -11 -49 -15 -55 -4 -5 -11 -30 -15 -54 -7 -43 -35 -80 -62 -81 -6 0 -13 -3 -15 -7 -1 -5 -25 -19 -53 -33 -27 -14 -52 -27 -55 -30 -6 -6 -44 -28 -90 -52 -39 -20 -72 -40 -80 -48 -3 -3 -27 -16 -55 -30 -27 -14 -51 -28 -53 -32 -2 -5 -9 -8 -16 -8 -7 0 -23 -9 -36 -20 -13 -11 -29 -20 -37 -20 -7 0 -13 -4 -13 -8 0 -4 -12 -13 -27 -20 -16 -6 -47 -23 -70 -37 -24 -14 -62 -36 -85 -50 -24 -14 -55 -31 -70 -37 -16 -7 -28 -16 -28 -20 0 -4 -7 -8 -15 -8 -7 0 -18 -6 -22 -14 -4 -7 -18 -17 -31 -20 -22 -7 -22 -6 7 41 16 26 33 60 36 76 4 15 10 27 14 27 3 0 18 21 31 48 14 26 28 49 32 52 3 3 10 18 13 33 4 15 11 27 15 27 5 0 19 21 32 48 13 26 25 49 28 52 3 3 13 21 24 40 57 107 67 124 75 134 5 6 12 23 16 39 4 15 11 27 15 27 5 0 11 13 15 29 3 16 13 32 21 35 8 3 14 12 14 21 0 8 4 15 9 15 5 0 12 12 16 27 3 15 10 30 13 33 4 3 18 25 31 49 l24 45 -23 18 c-12 10 -28 18 -35 18 -7 0 -18 6 -24 14 -7 8 -26 18 -42 21 -16 4 -29 10 -29 14 0 3 -21 18 -47 31 -27 14 -49 28 -51 33 -2 4 -16 7 -32 7 -23 0 -30 -5 -35 -30 -4 -16 -11 -30 -16 -30 -5 0 -11 -11 -15 -25 -3 -14 -9 -25 -13 -25 -3 0 -19 -28 -36 -63 -16 -34 -32 -64 -35 -67 -3 -3 -15 -26 -28 -52 -13 -27 -27 -48 -32 -48 -5 0 -11 -13 -15 -30 -4 -16 -11 -30 -16 -30 -5 0 -9 -5 -9 -11 0 -6 -15 -37 -34 -68 -35 -57 -75 -130 -117 -211 -13 -25 -27 -47 -31 -50 -3 -3 -10 -18 -13 -33 -4 -15 -10 -27 -14 -27 -3 0 -18 -21 -31 -47 -14 -27 -28 -50 -31 -53 -3 -3 -9 -12 -12 -20 -3 -8 -6 234 -6 539 l-1 554 530 530 c304 304 530 538 530 548 0 15 -202 229 -216 229 -17 0 -54 -30 -103 -83 -31 -33 -78 -81 -105 -106 -59 -56 -174 -171 -238 -237 -25 -27 -88 -90 -140 -140 -51 -50 -114 -113 -139 -140 -25 -27 -62 -64 -82 -82 l-37 -32 0 267 0 268 365 365 c249 249 365 372 365 386 0 18 -108 137 -198 218 -21 18 -23 17 -274 -234 l-253 -253 -3 276 -2 277 -165 0 -165 0 0 -270z"/>
 </g>

</svg>